<svg width="24" height="24" viewBox="0 0 24 24" fill="none" xmlns="http://www.w3.org/2000/svg">
<path d="M15.65 5.00001L11.975 8.65001L10.925 7.60001L12.775 5.75001H12C10.2667 5.75001 8.79167 6.36234 7.575 7.58701C6.35833 8.81234 5.75 10.3 5.75 12.05C5.75 12.4667 5.796 12.879 5.888 13.287C5.97933 13.6957 6.11667 14.1 6.3 14.5L5.175 15.625C4.875 15.0583 4.646 14.475 4.488 13.875C4.32933 13.275 4.25 12.6667 4.25 12.05C4.25 9.88334 5.00433 8.04167 6.513 6.52501C8.021 5.00834 9.85 4.25001 12 4.25001H12.775L10.925 2.40001L11.975 1.35001L15.65 5.00001ZM8.35 19L12.025 15.35L13.075 16.4L11.225 18.25H12C13.7333 18.25 15.2083 17.6377 16.425 16.413C17.6417 15.1877 18.25 13.7 18.25 11.95C18.25 11.5333 18.2043 11.1207 18.113 10.712C18.021 10.304 17.8833 9.90001 17.7 9.50001L18.825 8.37501C19.125 8.94167 19.3543 9.52501 19.513 10.125C19.671 10.725 19.75 11.3333 19.75 11.95C19.75 14.1167 18.996 15.9583 17.488 17.475C15.9793 18.9917 14.15 19.75 12 19.75H11.225L13.075 21.6L12.025 22.65L8.35 19Z" fill="white"/>
</svg>
