<svg width="24" height="24" viewBox="0 0 24 24" fill="none" xmlns="http://www.w3.org/2000/svg">
<path d="M8.3 19H15.7C15.7667 19 15.8333 18.9667 15.9 18.9C15.9667 18.8333 16 18.7667 16 18.7V8.99999H8V18.7C8 18.7667 8.03333 18.8333 8.1 18.9C8.16667 18.9667 8.23333 19 8.3 19ZM5.625 6.29999V4.79999H8.6L9.6 3.79999H14.4L15.4 4.79999H18.375V6.29999H5.625ZM8.3 20.5C7.8 20.5 7.375 20.325 7.025 19.975C6.675 19.625 6.5 19.2 6.5 18.7V7.49999H17.5V18.7C17.5 19.2 17.325 19.625 16.975 19.975C16.625 20.325 16.2 20.5 15.7 20.5H8.3ZM8 19H16C16 19 15.9667 19 15.9 19C15.8333 19 15.7667 19 15.7 19H8.3C8.23333 19 8.16667 19 8.1 19C8.03333 19 8 19 8 19Z" fill="white"/>
</svg>
