<svg width="24" height="24" viewBox="0 0 24 24" fill="none" xmlns="http://www.w3.org/2000/svg">
<path d="M12 20.325L10.875 19.325C8.34167 17.0417 6.31233 15.0583 4.787 13.375C3.26233 11.6917 2.5 9.95 2.5 8.15C2.5 6.73333 2.97933 5.54567 3.938 4.587C4.896 3.629 6.08333 3.15 7.5 3.15C8.3 3.15 9.096 3.33733 9.888 3.712C10.6793 4.08733 11.3833 4.69167 12 5.525C12.6167 4.69167 13.321 4.08733 14.113 3.712C14.9043 3.33733 15.7 3.15 16.5 3.15C17.9167 3.15 19.104 3.629 20.062 4.587C21.0207 5.54567 21.5 6.73333 21.5 8.15C21.5 9.95 20.7373 11.6917 19.212 13.375C17.6873 15.0583 15.6583 17.0417 13.125 19.325L12 20.325ZM12 18.3C14.3833 16.1333 16.3127 14.2667 17.788 12.7C19.2627 11.1333 20 9.61667 20 8.15C20 7.15 19.6667 6.31667 19 5.65C18.3333 4.98333 17.5 4.65 16.5 4.65C15.7167 4.65 14.9917 4.86667 14.325 5.3C13.6583 5.73333 13.125 6.36667 12.725 7.2H11.275C10.875 6.36667 10.3417 5.73333 9.675 5.3C9.00833 4.86667 8.28333 4.65 7.5 4.65C6.5 4.65 5.66667 4.98333 5 5.65C4.33333 6.31667 4 7.15 4 8.15C4 9.61667 4.73767 11.1333 6.213 12.7C7.68767 14.2667 9.61667 16.1333 12 18.3Z" fill="white"/>
</svg>
