<svg width="24" height="24" viewBox="0 0 24 24" fill="none" xmlns="http://www.w3.org/2000/svg">
<path d="M6.22498 13.5C5.80831 13.5 5.45431 13.354 5.16298 13.062C4.87098 12.7707 4.72498 12.4167 4.72498 12C4.72498 11.5833 4.87098 11.2293 5.16298 10.938C5.45431 10.646 5.80831 10.5 6.22498 10.5C6.64164 10.5 6.99598 10.646 7.28798 10.938C7.57931 11.2293 7.72498 11.5833 7.72498 12C7.72498 12.4167 7.57931 12.7707 7.28798 13.062C6.99598 13.354 6.64164 13.5 6.22498 13.5ZM12 13.5C11.5833 13.5 11.2293 13.354 10.938 13.062C10.646 12.7707 10.5 12.4167 10.5 12C10.5 11.5833 10.646 11.2293 10.938 10.938C11.2293 10.646 11.5833 10.5 12 10.5C12.4166 10.5 12.7706 10.646 13.062 10.938C13.354 11.2293 13.5 11.5833 13.5 12C13.5 12.4167 13.354 12.7707 13.062 13.062C12.7706 13.354 12.4166 13.5 12 13.5ZM17.775 13.5C17.3583 13.5 17.0043 13.354 16.713 13.062C16.421 12.7707 16.275 12.4167 16.275 12C16.275 11.5833 16.421 11.2293 16.713 10.938C17.0043 10.646 17.3583 10.5 17.775 10.5C18.1916 10.5 18.546 10.646 18.838 10.938C19.1293 11.2293 19.275 11.5833 19.275 12C19.275 12.4167 19.1293 12.7707 18.838 13.062C18.546 13.354 18.1916 13.5 17.775 13.5Z" fill="white"/>
</svg>
