<svg width="24" height="24" viewBox="0 0 24 24" fill="none" xmlns="http://www.w3.org/2000/svg">
<path d="M4.25002 18.875V17.375H6.25002V10.125C6.25002 9.875 6.26669 9.64167 6.30002 9.425C6.33336 9.20833 6.37502 8.99167 6.42502 8.775L2.02502 4.375L3.10002 3.325L20.925 21.15L19.875 22.225L16.5 18.875H4.25002ZM17.75 15.15L16.25 13.65V10.125C16.25 8.94167 15.8334 7.93733 15 7.112C14.1667 6.28733 13.1667 5.875 12 5.875C11.5334 5.875 11.071 5.954 10.613 6.112C10.1544 6.27067 9.75002 6.5 9.40002 6.8L8.32502 5.725C8.67502 5.425 9.05836 5.17067 9.47502 4.962C9.89169 4.754 10.3167 4.6 10.75 4.5V3.8C10.75 3.45 10.871 3.154 11.113 2.912C11.3544 2.67067 11.65 2.55 12 2.55C12.35 2.55 12.6457 2.67067 12.887 2.912C13.129 3.154 13.25 3.45 13.25 3.8V4.5C14.5 4.78333 15.5627 5.43767 16.438 6.463C17.3127 7.48767 17.75 8.70833 17.75 10.125V15.15ZM12 21.8C11.5 21.8 11.075 21.625 10.725 21.275C10.375 20.925 10.2 20.5 10.2 20H13.8C13.8 20.5 13.625 20.925 13.275 21.275C12.925 21.625 12.5 21.8 12 21.8ZM7.75002 17.375H14.975L7.80002 10.175C7.78336 10.2417 7.77102 10.3123 7.76302 10.387C7.75436 10.4623 7.75002 10.5333 7.75002 10.6V17.375Z" fill="white"/>
</svg>
